<svg width="302" height="135" viewBox="0 0 302 135" fill="none" xmlns="http://www.w3.org/2000/svg">
<path d="M49.17 105.811H0V86.371L46.55 13.681H68.77V88.1711H85.64V105.811H68.77V129.331H49.17V105.811ZM49.17 41.451H48.84L19.93 88.1711H49.17V41.451Z" fill="#0F172A"/>
<path d="M264.85 105.811H215.69V86.371L262.24 13.681H284.46V88.1711H301.28V105.811H284.46V129.331H264.85V105.811ZM268.27 41.451H267.94L239.03 88.1711H268.27V41.451Z" fill="#0F172A"/>
<path d="M147.12 19.4511C136.847 19.4491 126.804 22.493 118.261 28.1979C109.717 33.9028 103.057 42.0126 99.1221 51.5022C95.1872 60.9917 94.154 71.4349 96.1534 81.5115C98.1527 91.5881 103.095 100.846 110.355 108.114C117.615 115.382 126.866 120.335 136.941 122.346C147.015 124.357 157.459 123.336 166.953 119.412C176.448 115.488 184.565 108.837 190.28 100.3C195.995 91.7636 199.05 81.7241 199.06 71.451C199.068 64.6251 197.73 57.8646 195.124 51.556C192.517 45.2475 188.692 39.5146 183.868 34.6851C179.045 29.8557 173.316 26.0245 167.01 23.4105C160.705 20.7965 153.946 19.451 147.12 19.4511Z" fill="white" stroke="#231F20" stroke-width="1.03" stroke-linecap="round" stroke-linejoin="round"/>
<path d="M174.35 58.071C175.675 58.071 176.75 56.4727 176.75 54.5011C176.75 52.5294 175.675 50.931 174.35 50.931C173.025 50.931 171.95 52.5294 171.95 54.5011C171.95 56.4727 173.025 58.071 174.35 58.071Z" fill="#231F20"/>
<path d="M86.1 56.011L208.1 29.011L184.1 22.011C184.1 22.011 171.1 0.461045 167.63 0.0110451C164.16 -0.438955 101.1 13.011 101.1 13.011L97.1 43.371L86.1 56.011Z" fill="#231F20"/>
<path d="M126.91 82.2211C126.91 82.2211 157.91 69.831 171.47 92.911Z" fill="white"/>
<path d="M171.47 93.431C171.38 93.4303 171.292 93.4058 171.215 93.3601C171.138 93.3145 171.074 93.2493 171.03 93.1711C157.84 70.7411 127.4 82.5811 127.1 82.7011C126.967 82.7528 126.82 82.7497 126.689 82.6925C126.559 82.6353 126.457 82.5287 126.405 82.396C126.353 82.2634 126.356 82.1157 126.414 81.9854C126.471 81.855 126.577 81.7528 126.71 81.7011C127.03 81.5811 158.28 69.4111 171.92 92.6111C171.987 92.7298 172.006 92.8699 171.972 93.0022C171.939 93.1344 171.856 93.2486 171.74 93.321C171.662 93.3818 171.568 93.4198 171.47 93.431Z" fill="#231F20"/>
<path d="M111.5 129.111L97.71 107.311L157.99 97.0011L162.13 117.891L168.25 98.651L199.09 104.741L192.82 129.111H111.5Z" fill="#231F20"/>
<path d="M188.742 81.8391L194.299 81.07L197.17 101.812C197.266 102.506 197.083 103.209 196.66 103.767C196.238 104.326 195.611 104.693 194.917 104.789L194.59 104.834C193.897 104.93 193.193 104.747 192.635 104.324C192.077 103.902 191.709 103.275 191.613 102.581L188.742 81.8391Z" fill="white"/>
<path d="M194.23 105.371C193.472 105.369 192.741 105.094 192.17 104.596C191.598 104.098 191.226 103.411 191.12 102.661L188.25 81.911C188.233 81.7798 188.269 81.6471 188.349 81.5422C188.43 81.4372 188.549 81.3685 188.68 81.351L194.23 80.5811C194.295 80.5726 194.361 80.577 194.425 80.5942C194.488 80.6114 194.548 80.6409 194.6 80.681C194.653 80.7197 194.697 80.7691 194.73 80.8259C194.763 80.8828 194.783 80.9458 194.79 81.011L197.64 101.751C197.699 102.16 197.677 102.576 197.573 102.976C197.47 103.376 197.289 103.752 197.04 104.081C196.79 104.41 196.478 104.687 196.121 104.895C195.764 105.102 195.369 105.237 194.96 105.291L194.64 105.341C194.504 105.36 194.367 105.37 194.23 105.371ZM189.31 82.271L192.11 102.521C192.189 103.082 192.487 103.589 192.939 103.932C193.39 104.275 193.958 104.425 194.52 104.351H194.85C195.41 104.272 195.917 103.974 196.258 103.522C196.599 103.07 196.747 102.502 196.67 101.941L193.87 81.6911L189.31 82.271Z" fill="#231F20"/>
<path d="M193.439 62.2902L184.474 63.531L187.282 83.8176L196.247 82.5769L193.439 62.2902Z" fill="white"/>
<path d="M187.28 84.331C187.172 84.3284 187.068 84.2936 186.98 84.231C186.926 84.1933 186.881 84.1442 186.848 84.0871C186.816 84.0301 186.796 83.9666 186.79 83.901L183.98 63.601C183.97 63.5365 183.972 63.4705 183.988 63.4069C184.003 63.3434 184.031 63.2836 184.07 63.231C184.153 63.129 184.27 63.0613 184.4 63.041L193.4 61.801C193.465 61.7912 193.532 61.7946 193.596 61.8111C193.659 61.8276 193.719 61.8568 193.771 61.8969C193.824 61.9371 193.867 61.9874 193.9 62.0448C193.932 62.1022 193.953 62.1655 193.96 62.231L196.77 82.521C196.787 82.6523 196.751 82.7849 196.671 82.8899C196.59 82.9949 196.471 83.0636 196.34 83.081L187.34 84.321L187.28 84.331ZM185.04 63.961L187.71 83.261L195.71 82.161L193.04 62.861L185.04 63.961Z" fill="#231F20"/>
<path d="M195.024 97.0715L192.399 97.4348C190.649 97.6771 189.426 99.2926 189.668 101.043L193.674 129.987C193.917 131.738 195.532 132.961 197.283 132.718L199.908 132.355C201.658 132.113 202.881 130.497 202.639 128.747L198.633 99.8025C198.391 98.0519 196.775 96.8292 195.024 97.0715Z" fill="white"/>
<path d="M196.83 133.261C195.938 133.26 195.076 132.936 194.404 132.35C193.731 131.764 193.293 130.955 193.17 130.071L189.17 101.121C189.102 100.64 189.129 100.15 189.251 99.6801C189.373 99.2098 189.587 98.7683 189.88 98.381C190.473 97.6017 191.35 97.0879 192.32 96.9511L194.96 96.5911C195.929 96.4572 196.912 96.7139 197.692 97.3046C198.472 97.8953 198.986 98.7717 199.12 99.741L203.12 128.741C203.251 129.71 202.993 130.691 202.403 131.471C201.813 132.25 200.938 132.765 199.97 132.901L197.33 133.271L196.83 133.261ZM195.47 97.551C195.347 97.5412 195.223 97.5412 195.1 97.551L192.46 97.911C192.108 97.959 191.77 98.0766 191.464 98.2569C191.159 98.4371 190.892 98.6765 190.68 98.961C190.463 99.242 190.305 99.5641 190.215 99.9078C190.126 100.252 190.107 100.61 190.16 100.961L194.16 129.961C194.262 130.66 194.632 131.291 195.193 131.72C195.753 132.15 196.459 132.344 197.16 132.261L199.8 131.891C200.5 131.792 201.133 131.422 201.563 130.861C201.993 130.3 202.186 129.593 202.1 128.891L198.1 99.8911C198.011 99.2477 197.693 98.658 197.205 98.23C196.716 97.802 196.089 97.5645 195.44 97.5611L195.47 97.551Z" fill="#231F20"/>
<path d="M188.24 81.771C201.511 81.771 212.27 71.0124 212.27 57.741C212.27 44.4696 201.511 33.711 188.24 33.711C174.969 33.711 164.21 44.4696 164.21 57.741C164.21 71.0124 174.969 81.771 188.24 81.771Z" fill="white"/>
<path d="M188.22 82.271C183.51 82.2689 178.901 80.9116 174.942 78.3611C170.982 75.8106 167.841 72.1747 165.891 67.8873C163.942 63.6 163.268 58.8423 163.949 54.1821C164.63 49.522 166.638 45.1563 169.733 41.6061C172.827 38.0559 176.878 35.4712 181.402 34.1605C185.925 32.8498 190.73 32.8685 195.244 34.2143C199.757 35.5602 203.788 38.1763 206.855 41.7504C209.921 45.3246 211.895 49.7058 212.54 54.371C213.424 60.8096 211.721 67.3362 207.804 72.5221C203.887 77.708 198.075 81.1307 191.64 82.041C190.506 82.1937 189.364 82.2705 188.22 82.271ZM188.22 34.201C187.133 34.2 186.047 34.2735 184.97 34.421C180.358 35.0584 176.038 37.0492 172.558 40.1417C169.077 43.2342 166.591 47.2894 165.416 51.7945C164.24 56.2996 164.426 61.0522 165.951 65.4513C167.477 69.8504 170.272 73.6983 173.985 76.5084C177.697 79.3186 182.16 80.9647 186.808 81.2387C191.455 81.5126 196.08 80.402 200.097 78.0474C204.114 75.6927 207.342 72.1998 209.374 68.0104C211.405 63.8209 212.149 59.1231 211.51 54.511C210.724 48.8961 207.941 43.7524 203.671 40.0223C199.401 36.2922 193.93 34.2256 188.26 34.201H188.22Z" fill="#231F20"/>
<path d="M188.24 77.261C199.021 77.261 207.76 68.5216 207.76 57.741C207.76 46.9604 199.021 38.221 188.24 38.221C177.459 38.221 168.72 46.9604 168.72 57.741C168.72 68.5216 177.459 77.261 188.24 77.261Z" fill="white"/>
<path d="M188.23 77.761C183.045 77.7611 178.063 75.7476 174.334 72.1451C170.605 68.5426 168.42 63.6327 168.242 58.4509C168.063 53.269 169.903 48.2202 173.375 44.3692C176.847 40.5182 181.679 38.166 186.851 37.8086C192.024 37.4512 197.133 39.1166 201.101 42.4536C205.07 45.7905 207.587 50.5382 208.123 55.6954C208.658 60.8526 207.17 66.0162 203.972 70.0974C200.774 74.1785 196.116 76.8581 190.98 77.571C190.069 77.6986 189.15 77.7621 188.23 77.761ZM188.23 38.761C187.344 38.7616 186.458 38.8217 185.58 38.941C180.703 39.6173 176.278 42.1607 173.239 46.0352C170.2 49.9097 168.784 54.8127 169.29 59.7107C169.795 64.6088 172.182 69.1194 175.948 72.2919C179.714 75.4644 184.564 77.051 189.477 76.7173C194.39 76.3836 198.981 74.1557 202.283 70.5031C205.586 66.8505 207.341 62.0585 207.179 57.1371C207.018 52.2157 204.951 47.5493 201.417 44.1213C197.882 40.6933 193.154 38.7716 188.23 38.761Z" fill="#231F20"/>
<path d="M211.19 111.911C209.869 110.235 208.197 108.869 206.29 107.911C200.56 104.911 193.99 105.011 187.96 106.911C185.82 107.591 181.67 108.561 181.45 111.401C181.458 111.968 181.648 112.516 181.992 112.967C182.336 113.417 182.816 113.744 183.36 113.901C184.454 114.185 185.597 114.229 186.71 114.031C185.124 113.988 183.557 114.383 182.18 115.171C180.89 116.081 180.18 118.071 181.24 119.281C181.708 119.784 182.319 120.133 182.99 120.281C184.449 120.682 185.992 120.662 187.44 120.221C185.873 120.521 184.347 121.001 182.89 121.651C182.01 122.041 181.03 122.731 181.13 123.651C181.23 124.571 182.13 124.991 182.95 125.271C184.675 125.863 186.478 126.2 188.3 126.271C186.727 126.556 185.239 127.196 183.95 128.141C181.95 129.821 181.95 133.011 184.66 133.921C185.529 134.175 186.436 134.28 187.34 134.231C195.34 134.231 204.92 133.231 210.34 126.571C211.654 125.036 212.574 123.204 213.02 121.233C213.466 119.262 213.425 117.212 212.9 115.261C212.53 114.053 211.951 112.92 211.19 111.911Z" fill="white"/>
<path d="M187.28 134.701C186.341 134.747 185.402 134.635 184.5 134.371C183.902 134.189 183.365 133.849 182.946 133.385C182.527 132.922 182.241 132.354 182.12 131.741C182.006 131.002 182.084 130.245 182.347 129.545C182.609 128.844 183.048 128.223 183.62 127.741C184.265 127.206 184.995 126.783 185.78 126.491C184.76 126.318 183.757 126.061 182.78 125.721C181.45 125.261 180.78 124.581 180.63 123.721C180.48 122.861 181.25 121.821 182.63 121.171L183.34 120.871C183.158 120.837 182.978 120.794 182.8 120.741C182.031 120.579 181.332 120.18 180.8 119.601C180.556 119.302 180.378 118.956 180.276 118.584C180.175 118.212 180.152 117.822 180.21 117.441C180.287 116.91 180.47 116.4 180.749 115.941C181.027 115.483 181.395 115.085 181.83 114.771C182.141 114.553 182.477 114.371 182.83 114.231C182.261 113.999 181.775 113.601 181.434 113.089C181.094 112.578 180.914 111.976 180.92 111.361C181.15 108.441 184.76 107.361 187.14 106.631L187.78 106.441C194.46 104.331 201.11 104.701 206.49 107.441C208.468 108.443 210.2 109.87 211.56 111.621C212.359 112.669 212.971 113.846 213.37 115.101C213.924 117.132 213.972 119.267 213.51 121.321C213.048 123.374 212.09 125.283 210.72 126.881C205.05 133.811 195.23 134.711 187.31 134.721L187.28 134.701ZM186.33 120.911C185.219 121.193 184.135 121.571 183.09 122.041C182.62 122.251 181.55 122.821 181.63 123.561C181.71 124.301 182.47 124.561 183.11 124.771C184.788 125.358 186.544 125.695 188.32 125.771C188.44 125.773 188.555 125.819 188.644 125.9C188.732 125.981 188.788 126.092 188.8 126.211C188.814 126.33 188.784 126.451 188.716 126.55C188.648 126.649 188.546 126.721 188.43 126.751C186.93 127.029 185.51 127.633 184.27 128.521C183.826 128.886 183.485 129.36 183.28 129.896C183.075 130.433 183.013 131.013 183.1 131.581C183.187 132.021 183.394 132.428 183.697 132.758C184.001 133.087 184.389 133.327 184.82 133.451C185.634 133.692 186.483 133.786 187.33 133.731C195.04 133.731 204.57 132.871 209.97 126.261C211.236 124.792 212.124 123.035 212.557 121.144C212.989 119.253 212.952 117.285 212.45 115.411C212.082 114.267 211.521 113.195 210.79 112.241C209.524 110.605 207.908 109.272 206.06 108.341C200.91 105.691 194.54 105.341 188.11 107.341L187.46 107.541C185.34 108.181 182.12 109.151 181.94 111.391C181.959 111.848 182.122 112.288 182.405 112.647C182.689 113.007 183.079 113.267 183.52 113.391C184.098 113.576 184.705 113.65 185.31 113.611C185.78 113.561 186.24 113.531 186.68 113.501C186.81 113.498 186.936 113.543 187.034 113.628C187.132 113.713 187.195 113.832 187.21 113.961C187.219 114.092 187.177 114.22 187.093 114.321C187.009 114.421 186.89 114.486 186.76 114.501C186.31 114.501 185.84 114.601 185.36 114.611C184.333 114.678 183.34 115.001 182.47 115.551C182.145 115.786 181.87 116.085 181.662 116.428C181.454 116.772 181.318 117.154 181.26 117.551C181.221 117.795 181.233 118.044 181.295 118.284C181.356 118.523 181.467 118.747 181.62 118.941C182.027 119.358 182.549 119.644 183.12 119.761C184.097 120.025 185.117 120.093 186.12 119.961C186.52 119.861 186.93 119.771 187.33 119.691C187.456 119.667 187.586 119.692 187.694 119.76C187.802 119.829 187.879 119.937 187.91 120.061C187.939 120.185 187.92 120.316 187.857 120.427C187.794 120.538 187.691 120.622 187.57 120.661C187.164 120.778 186.75 120.862 186.33 120.911Z" fill="#231F20"/>
<path d="M155.43 58.121C155.43 58.121 167.61 76.421 160.24 76.681C152.87 76.941 152.24 75.011 152.24 75.011" fill="white"/>
<path d="M158.92 77.261C152.74 77.261 151.85 75.571 151.73 75.261C151.688 75.1297 151.7 74.9874 151.761 74.8642C151.823 74.741 151.93 74.6466 152.06 74.601C152.19 74.5599 152.331 74.5714 152.453 74.6331C152.574 74.6948 152.667 74.8018 152.71 74.931C152.71 74.931 153.61 76.481 160.22 76.241C160.542 76.2707 160.866 76.2074 161.153 76.0585C161.44 75.9096 161.679 75.6814 161.84 75.401C163.42 72.331 157.44 62.151 155 58.491C154.935 58.3771 154.915 58.2425 154.944 58.1145C154.974 57.9865 155.051 57.8744 155.16 57.801C155.269 57.7275 155.402 57.698 155.532 57.7184C155.662 57.7388 155.779 57.8076 155.86 57.911C156.79 59.311 164.86 71.711 162.76 75.911C162.52 76.3589 162.157 76.7293 161.715 76.9789C161.272 77.2286 160.768 77.3472 160.26 77.321L158.92 77.261Z" fill="#231F20"/>
<path d="M189.35 64.661C191.791 64.661 193.77 61.2897 193.77 57.131C193.77 52.9723 191.791 49.601 189.35 49.601C186.909 49.601 184.93 52.9723 184.93 57.131C184.93 61.2897 186.909 64.661 189.35 64.661Z" fill="#D1D3D4"/>
<path d="M135.26 63.2211C137.121 63.2211 138.63 60.4945 138.63 57.131C138.63 53.7676 137.121 51.041 135.26 51.041C133.399 51.041 131.89 53.7676 131.89 57.131C131.89 60.4945 133.399 63.2211 135.26 63.2211Z" fill="#231F20"/>
</svg>
