<svg width="64" height="64" viewBox="0 0 64 64" fill="none" xmlns="http://www.w3.org/2000/svg">
<path fill-rule="evenodd" clip-rule="evenodd" d="M31.8291 4.32181e-07C24.9577 -2.93353e-05 19.5727 -5.92165e-05 15.371 0.564838C11.0704 1.14304 7.67688 2.34963 5.01326 5.01325C2.34963 7.67687 1.14304 11.0704 0.564838 15.371C-5.82407e-05 19.5727 -2.8356e-05 24.9577 1.41141e-06 31.8291V32.1709C-2.8356e-05 35.2179 -2.82443e-05 37.9728 0.0492071 40.4617C0.016969 40.6129 1.41141e-06 40.7695 1.41141e-06 40.9302C1.41141e-06 41.1267 0.0254228 41.3175 0.07314 41.4991C0.144582 44.1889 0.285769 46.5533 0.564838 48.629C1.14304 52.9295 2.34963 56.3233 5.01326 58.9869C7.67688 61.6505 11.0704 62.8569 15.371 63.4353C19.5727 64 24.9577 64 31.8291 64H32.1709C39.0424 64 44.4273 64 48.629 63.4353C52.9295 62.8569 56.3233 61.6505 58.9869 58.9869C61.6505 56.3233 62.8569 52.9295 63.4353 48.629C63.7142 46.5533 63.8553 44.1889 63.9268 41.4991C63.9747 41.3175 64 41.1267 64 40.9302C64 40.7695 63.983 40.6129 63.9509 40.462C64 37.9728 64 35.2179 64 32.1709V31.8291C64 24.9577 64 19.5727 63.4353 15.371C62.8569 11.0704 61.6505 7.67687 58.9869 5.01325C56.3233 2.34963 52.9295 1.14304 48.629 0.564838C44.4273 -5.92165e-05 39.0424 -2.93353e-05 32.1709 4.32181e-07H31.8291ZM59.5117 38.6977C59.5343 36.6848 59.5349 34.463 59.5349 32C59.5349 24.9206 59.5301 19.8357 59.0098 15.966C58.4984 12.1605 57.5253 9.86627 55.8294 8.17057C54.1336 6.47484 51.8394 5.50177 48.0339 4.99012C44.1642 4.46985 39.0793 4.46512 32 4.46512C24.9206 4.46512 19.8357 4.46985 15.966 4.99012C12.1605 5.50177 9.86627 6.47484 8.17057 8.17057C6.47484 9.86627 5.50177 12.1605 4.99013 15.966C4.46985 19.8357 4.46512 24.9206 4.46512 32C4.46512 34.463 4.46568 36.6848 4.48837 38.6977H11.1628L11.4835 38.6974C13.0493 38.695 14.4394 38.6926 15.7148 39.2391C16.9901 39.7857 17.9472 40.7939 19.0253 41.9295L19.2462 42.162L22.6445 45.7302C22.8871 45.985 23.0857 46.1934 23.2608 46.3708C23.4106 46.1714 23.5795 45.9386 23.786 45.6534L34.6624 30.6411C35.1053 30.0291 35.5676 29.3903 36.024 28.92C36.5461 28.3815 37.3558 27.7456 38.5301 27.6918C39.7044 27.6379 40.5692 28.1966 41.1383 28.6848C41.636 29.1117 42.1549 29.7049 42.6523 30.2738L48.0217 36.4103C49.4675 38.063 49.7765 38.3452 50.1135 38.4982C50.4505 38.6509 50.8663 38.6977 53.0622 38.6977H59.5117ZM4.5969 43.1628C4.67403 44.9822 4.79631 46.5923 4.99013 48.0339C5.50177 51.8394 6.47484 54.1336 8.17057 55.8294C9.86627 57.5253 12.1605 58.4984 15.966 59.0098C19.8357 59.5301 24.9206 59.5349 32 59.5349C39.0793 59.5349 44.1642 59.5301 48.0339 59.0098C51.8394 58.4984 54.1336 57.5253 55.8294 55.8294C57.5253 54.1336 58.4984 51.8394 59.0098 48.0339C59.2036 46.5923 59.3259 44.9822 59.403 43.1628H53.0622L52.7226 43.1631C51.0687 43.1658 49.6 43.1684 48.2685 42.5642C46.937 41.9602 45.9716 40.8531 44.8848 39.6065L44.6613 39.3508L39.3707 33.3044C39.1293 33.0282 38.9311 32.8019 38.7563 32.609C38.5997 32.8174 38.4232 33.0606 38.208 33.3577L27.3337 48.3673C26.908 48.9555 26.4606 49.5732 26.0177 50.0313C25.508 50.5585 24.7254 51.175 23.5884 51.2512C22.4514 51.3277 21.5934 50.8211 21.0178 50.3668C20.5176 49.9721 19.9918 49.4196 19.4914 48.8939L16.0128 45.2414C14.5812 43.7382 14.279 43.4819 13.9559 43.3432C13.6328 43.2048 13.2386 43.1628 11.1628 43.1628H4.5969Z" fill="white"/>
</svg>
