<svg width="267" height="191" viewBox="0 0 267 191" fill="none" xmlns="http://www.w3.org/2000/svg">
<path d="M197.36 163.512C197.227 163.512 197.1 163.459 197.006 163.366C196.913 163.272 196.86 163.145 196.86 163.012V129.752C196.86 129.619 196.913 129.492 197.006 129.398C197.1 129.305 197.227 129.252 197.36 129.252C197.493 129.252 197.62 129.305 197.714 129.398C197.807 129.492 197.86 129.619 197.86 129.752V163.012C197.86 163.145 197.807 163.272 197.714 163.366C197.62 163.459 197.493 163.512 197.36 163.512Z" fill="#231F20"/>
<path d="M265.7 169.732H0.5C0.368193 169.729 0.242496 169.676 0.149277 169.583C0.0560577 169.489 0.00256007 169.364 0 169.232C0 169.099 0.052678 168.972 0.146446 168.878C0.240214 168.785 0.367392 168.732 0.5 168.732H265.7C265.833 168.732 265.96 168.785 266.054 168.878C266.147 168.972 266.2 169.099 266.2 169.232C266.197 169.364 266.144 169.489 266.051 169.583C265.958 169.676 265.832 169.729 265.7 169.732Z" fill="#D1D3D4"/>
<path d="M226.56 9.50201H38.43C34.4812 9.50201 31.28 12.7032 31.28 16.652V145.742C31.28 149.691 34.4812 152.892 38.43 152.892H226.56C230.509 152.892 233.71 149.691 233.71 145.742V16.652C233.71 12.7032 230.509 9.50201 226.56 9.50201Z" fill="white"/>
<path d="M226.56 153.392H38.42C36.3928 153.389 34.4496 152.582 33.0171 151.148C31.5846 149.713 30.78 147.769 30.78 145.742V16.652C30.78 14.6248 31.5846 12.6805 33.0171 11.2462C34.4496 9.81181 36.3928 9.00466 38.42 9.00201H226.56C228.588 9.00466 230.532 9.81149 231.966 11.2456C233.401 12.6796 234.207 14.6239 234.21 16.652V145.742C234.207 147.77 233.401 149.714 231.966 151.148C230.532 152.583 228.588 153.389 226.56 153.392ZM38.42 10.002C36.658 10.0047 34.9692 10.7065 33.7242 11.9533C32.4793 13.2001 31.78 14.8901 31.78 16.652V145.742C31.78 147.504 32.4793 149.194 33.7242 150.441C34.9692 151.688 36.658 152.389 38.42 152.392H226.56C228.324 152.392 230.015 151.691 231.262 150.444C232.509 149.197 233.21 147.506 233.21 145.742V16.652C233.21 14.8883 232.509 13.1969 231.262 11.9498C230.015 10.7026 228.324 10.002 226.56 10.002H38.42Z" fill="#231F20"/>
<path d="M226.23 19.492H38.76V142.912H226.23V19.492Z" fill="#0F172A"/>
<path d="M162.61 173.652H102.37L109.18 152.892H155.81L162.61 173.652Z" fill="white"/>
<path d="M162.61 174.172H102.37C102.288 174.171 102.206 174.151 102.133 174.113C102.06 174.074 101.998 174.019 101.95 173.952C101.904 173.886 101.874 173.81 101.862 173.73C101.85 173.65 101.856 173.569 101.88 173.492L108.69 152.732C108.725 152.63 108.791 152.542 108.879 152.479C108.967 152.416 109.072 152.382 109.18 152.382H155.8C155.909 152.379 156.015 152.412 156.104 152.475C156.192 152.538 156.257 152.628 156.29 152.732L163.1 173.492C163.129 173.568 163.138 173.651 163.126 173.731C163.114 173.812 163.081 173.888 163.03 173.952C162.984 174.021 162.921 174.077 162.848 174.115C162.774 174.153 162.693 174.173 162.61 174.172ZM103.08 173.172H161.9L155.43 153.392H109.56L103.08 173.172Z" fill="#231F20"/>
<path d="M167.59 173.652H97.39C95.7773 173.652 94.47 174.959 94.47 176.572V176.582C94.47 178.195 95.7773 179.502 97.39 179.502H167.59C169.203 179.502 170.51 178.195 170.51 176.582V176.572C170.51 174.959 169.203 173.652 167.59 173.652Z" fill="white"/>
<path d="M167.59 180.012H97.4C96.9333 180.037 96.4664 179.967 96.0277 179.806C95.5891 179.645 95.1879 179.396 94.8486 179.074C94.5093 178.753 94.2391 178.366 94.0545 177.936C93.8698 177.507 93.7746 177.044 93.7746 176.577C93.7746 176.11 93.8698 175.647 94.0545 175.218C94.2391 174.789 94.5093 174.401 94.8486 174.08C95.1879 173.758 95.5891 173.509 96.0277 173.348C96.4664 173.187 96.9333 173.117 97.4 173.142H167.59C168.057 173.117 168.524 173.187 168.962 173.348C169.401 173.509 169.802 173.758 170.141 174.08C170.481 174.401 170.751 174.789 170.936 175.218C171.12 175.647 171.215 176.11 171.215 176.577C171.215 177.044 171.12 177.507 170.936 177.936C170.751 178.366 170.481 178.753 170.141 179.074C169.802 179.396 169.401 179.645 168.962 179.806C168.524 179.967 168.057 180.037 167.59 180.012ZM97.4 174.172C97.0711 174.151 96.7414 174.197 96.4312 174.309C96.121 174.42 95.8369 174.593 95.5965 174.819C95.3561 175.044 95.1644 175.317 95.0334 175.619C94.9024 175.921 94.8348 176.247 94.8348 176.577C94.8348 176.907 94.9024 177.233 95.0334 177.535C95.1644 177.837 95.3561 178.11 95.5965 178.335C95.8369 178.561 96.121 178.734 96.4312 178.846C96.7414 178.957 97.0711 179.003 97.4 178.982H167.59C167.919 179.003 168.249 178.957 168.559 178.846C168.869 178.734 169.153 178.561 169.394 178.335C169.634 178.11 169.826 177.837 169.957 177.535C170.088 177.233 170.155 176.907 170.155 176.577C170.155 176.247 170.088 175.921 169.957 175.619C169.826 175.317 169.634 175.044 169.394 174.819C169.153 174.593 168.869 174.42 168.559 174.309C168.249 174.197 167.919 174.151 167.59 174.172H97.4Z" fill="#231F20"/>
<path d="M104.18 168.152C105.18 167.632 157.31 158.152 157.31 158.152L155.6 152.942H108.97L104.18 168.152Z" fill="#231F20"/>
<path d="M104.17 168.662C104.052 168.664 103.938 168.621 103.85 168.542C103.774 168.477 103.719 168.391 103.692 168.295C103.665 168.199 103.668 168.097 103.7 168.002L108.5 152.742C108.53 152.641 108.592 152.552 108.677 152.489C108.762 152.426 108.864 152.392 108.97 152.392H155.6C155.705 152.393 155.807 152.428 155.892 152.491C155.976 152.554 156.038 152.642 156.07 152.742L157.78 157.952C157.809 158.016 157.824 158.086 157.824 158.157C157.824 158.228 157.809 158.298 157.78 158.362C157.702 158.483 157.58 158.57 157.44 158.602C143.14 161.212 105.76 168.102 104.44 168.602C104.358 168.649 104.264 168.67 104.17 168.662ZM109.34 153.392L104.92 167.452C111.39 166.012 147.56 159.382 156.65 157.712L155.23 153.392H109.34Z" fill="#231F20"/>
<path d="M98.38 78.882C98.0008 80.0909 97.3856 81.2125 96.57 82.182C95.7821 83.0889 94.8107 83.8183 93.72 84.322C92.5491 84.8301 91.2864 85.0922 90.01 85.0922C88.7336 85.0922 87.4709 84.8301 86.3 84.322C85.2228 83.8197 84.2674 83.0896 83.5 82.182C82.7075 81.2033 82.1069 80.0836 81.73 78.882C81.3029 77.4961 81.0937 76.0522 81.11 74.602V58.392H86.11V74.092C86.1067 74.7649 86.1805 75.4359 86.33 76.092C86.4637 76.6916 86.6934 77.2656 87.01 77.792C87.3023 78.2877 87.7195 78.698 88.22 78.982C88.7716 79.2918 89.3977 79.4441 90.03 79.422C90.6297 79.441 91.2237 79.3001 91.7509 79.0136C92.2782 78.7272 92.7196 78.3055 93.03 77.792C93.3507 77.2676 93.5806 76.6929 93.71 76.092C93.8478 75.4344 93.9148 74.7639 93.91 74.092V58.392H98.91V74.562C98.969 76.0212 98.79 77.4803 98.38 78.882Z" fill="white"/>
<path d="M116.36 84.392L107.96 67.392H107.87L107.99 84.392H103.1V58.392H108.85L117.22 75.392H117.31L117.19 58.392H122.1V84.392H116.36Z" fill="white"/>
<path d="M145.89 71.392C145.943 73.3985 145.604 75.396 144.89 77.272C144.296 78.8067 143.383 80.1975 142.21 81.352C141.135 82.388 139.854 83.1854 138.45 83.692C137.087 84.1859 135.649 84.4397 134.2 84.442H126.41V58.392H133.97C135.446 58.3958 136.915 58.6113 138.33 59.032C139.75 59.4536 141.061 60.1806 142.17 61.162C143.368 62.2703 144.295 63.6388 144.88 65.162C145.625 67.1516 145.968 69.269 145.89 71.392ZM140.64 71.392C140.677 70.1506 140.484 68.913 140.07 67.742C139.744 66.8622 139.217 66.071 138.53 65.432C137.903 64.8655 137.159 64.4454 136.35 64.202C135.532 63.9589 134.683 63.8343 133.83 63.832H131.32V79.012H133.71C134.594 79.0176 135.474 78.8895 136.32 78.632C137.142 78.379 137.897 77.9451 138.53 77.362C139.216 76.7104 139.743 75.9098 140.07 75.022C140.481 73.8571 140.674 72.6267 140.64 71.392Z" fill="white"/>
<path d="M149.22 84.392V58.392H163.22V63.672H154.1V68.582H162.77V73.582H154.1V78.972H163.81V84.392H149.22Z" fill="white"/>
<path d="M178.31 84.392L173.78 74.092H172.1V84.392H167.1V58.392H175.1C176.093 58.3898 177.082 58.521 178.04 58.782C178.979 59.0289 179.855 59.4719 180.61 60.082C181.395 60.7355 182.015 61.5645 182.42 62.502C182.907 63.6871 183.139 64.9614 183.1 66.242C183.15 67.8016 182.751 69.3428 181.95 70.682C181.197 71.8628 180.076 72.7625 178.76 73.242L184.21 84.392H178.31ZM178.1 66.392C178.123 65.8772 178.016 65.3649 177.79 64.902C177.603 64.5452 177.327 64.2422 176.99 64.022C176.653 63.8132 176.28 63.6707 175.89 63.602C175.504 63.5316 175.112 63.4948 174.72 63.492H172.03V69.542H174.43C174.857 69.5423 175.282 69.4988 175.7 69.412C176.12 69.3332 176.523 69.1809 176.89 68.962C177.263 68.7115 177.564 68.3665 177.76 67.962C178.001 67.4748 178.118 66.9354 178.1 66.392Z" fill="white"/>
<path d="M87.76 103.472C87.1268 103.809 86.4174 103.978 85.7 103.962C85.0309 103.973 84.368 103.833 83.7604 103.552C83.1528 103.272 82.616 102.858 82.19 102.342C81.7434 101.786 81.4043 101.152 81.19 100.472C80.9339 99.7017 80.8088 98.8938 80.82 98.082C80.8055 97.2594 80.9341 96.4406 81.2 95.662C81.4258 94.9827 81.7825 94.3542 82.25 93.812C82.6866 93.3132 83.2255 92.9142 83.83 92.642C84.4432 92.3676 85.1082 92.2278 85.78 92.232C86.4393 92.2347 87.0904 92.3779 87.69 92.652C88.2981 92.913 88.8237 93.3348 89.21 93.872L87.71 95.692C87.516 95.3622 87.2314 95.095 86.89 94.922C86.5806 94.7621 86.2382 94.6765 85.89 94.672C85.5168 94.6643 85.1481 94.7539 84.82 94.932C84.4955 95.1062 84.2124 95.3484 83.99 95.642C83.7474 95.9672 83.5645 96.3329 83.45 96.722C83.1832 97.6159 83.1832 98.5682 83.45 99.462C83.557 99.8522 83.7369 100.219 83.98 100.542C84.1962 100.835 84.4767 101.075 84.8 101.242C85.1238 101.411 85.4847 101.497 85.85 101.492C86.2554 101.503 86.6551 101.395 87 101.182C87.3255 100.976 87.5966 100.695 87.79 100.362L89.33 102.122C88.9161 102.685 88.3791 103.147 87.76 103.472Z" fill="white"/>
<path d="M99.58 98.052C99.5919 98.8704 99.4668 99.6849 99.21 100.462C98.9958 101.145 98.6567 101.783 98.21 102.342C97.7704 102.86 97.2212 103.274 96.6021 103.554C95.983 103.835 95.3094 103.974 94.63 103.962C93.9406 103.971 93.2577 103.827 92.63 103.542C92.0246 103.258 91.4861 102.849 91.05 102.342C90.6033 101.783 90.2642 101.145 90.05 100.462C89.7932 99.6849 89.6681 98.8704 89.68 98.052C89.6666 97.2336 89.7917 96.4187 90.05 95.642C90.2644 94.9712 90.6037 94.3469 91.05 93.802C91.4876 93.3068 92.0264 92.9112 92.63 92.642C93.2599 92.3647 93.9418 92.2249 94.63 92.232C95.318 92.2276 95.9992 92.3673 96.63 92.642C97.2336 92.9112 97.7724 93.3068 98.21 93.802C98.6563 94.3469 98.9956 94.9712 99.21 95.642C99.4683 96.4187 99.5934 97.2336 99.58 98.052ZM97.22 98.052C97.2217 97.5945 97.1543 97.1394 97.02 96.702C96.913 96.3118 96.7331 95.9454 96.49 95.622C96.2676 95.3284 95.9845 95.0862 95.66 94.912C95.3302 94.7385 94.9626 94.6491 94.59 94.652C94.2237 94.6491 93.8626 94.7385 93.54 94.912C93.2155 95.0862 92.9324 95.3284 92.71 95.622C92.4635 95.9447 92.2803 96.3112 92.17 96.702C92.0439 97.1409 91.98 97.5954 91.98 98.052C91.9768 98.5227 92.0442 98.9913 92.18 99.442C92.2954 99.8352 92.4744 100.207 92.71 100.542C92.9324 100.836 93.2155 101.078 93.54 101.252C93.8654 101.423 94.2275 101.512 94.595 101.512C94.9625 101.512 95.3246 101.423 95.65 101.252C95.9745 101.078 96.2576 100.836 96.48 100.542C96.7265 100.212 96.9096 99.8389 97.02 99.442C97.1557 98.9913 97.2232 98.5227 97.22 98.052Z" fill="white"/>
<path d="M106.86 103.662L103.18 96.392L103.23 103.672H101.08V92.532H103.61L107.28 99.802L107.22 92.532H109.37V103.662H106.86Z" fill="white"/>
<path d="M116.1 95.392C115.91 95.1052 115.657 94.8657 115.36 94.692C115.09 94.5308 114.784 94.4413 114.47 94.432C114.322 94.4343 114.175 94.4511 114.03 94.482C113.881 94.5102 113.741 94.5718 113.62 94.662C113.497 94.7593 113.392 94.8778 113.31 95.012C113.224 95.1785 113.182 95.3646 113.19 95.552C113.182 95.7147 113.217 95.8766 113.29 96.022C113.354 96.1536 113.451 96.267 113.57 96.352C113.71 96.4546 113.861 96.5417 114.02 96.612L114.6 96.862C114.91 96.982 115.23 97.122 115.6 97.272C115.937 97.4255 116.247 97.6314 116.52 97.882C116.803 98.147 117.033 98.4624 117.2 98.812C117.393 99.2528 117.485 99.7311 117.47 100.212C117.486 100.779 117.388 101.344 117.18 101.872C117.008 102.308 116.742 102.701 116.4 103.022C116.076 103.321 115.695 103.552 115.28 103.702C114.858 103.845 114.416 103.92 113.97 103.922C113.314 103.921 112.665 103.778 112.07 103.502C111.474 103.235 110.952 102.827 110.55 102.312L111.99 100.522C112.22 100.865 112.524 101.152 112.88 101.362C113.203 101.579 113.581 101.697 113.97 101.702C114.132 101.703 114.293 101.683 114.45 101.642C114.601 101.605 114.742 101.533 114.86 101.432C114.979 101.331 115.075 101.204 115.14 101.062C115.207 100.88 115.241 100.686 115.24 100.492C115.249 100.303 115.203 100.116 115.11 99.952C115.012 99.7976 114.886 99.6621 114.74 99.552C114.556 99.4201 114.358 99.3094 114.15 99.222L113.34 98.902C113.045 98.7837 112.758 98.6468 112.48 98.492C112.2 98.3322 111.947 98.1298 111.73 97.892C111.5 97.6271 111.32 97.322 111.2 96.992C110.9 96.0519 110.939 95.0364 111.31 94.122C111.497 93.7073 111.773 93.3391 112.119 93.0435C112.465 92.7479 112.871 92.5323 113.31 92.412C113.725 92.2848 114.156 92.2207 114.59 92.222C115.134 92.2267 115.672 92.3423 116.17 92.562C116.71 92.7887 117.195 93.1299 117.59 93.562L116.1 95.392Z" fill="white"/>
<path d="M122.64 94.822V103.662H120.43V94.822H117.85V92.532H125.23V94.822H122.64Z" fill="white"/>
<path d="M131.1 103.662L129.1 99.242H128.35V103.662H126.19V92.532H129.68C130.112 92.529 130.542 92.5828 130.96 92.692C131.371 92.7985 131.756 92.9892 132.09 93.252C132.427 93.5199 132.697 93.8622 132.88 94.252C133.095 94.7607 133.198 95.31 133.18 95.862C133.2 96.5303 133.026 97.1901 132.68 97.762C132.344 98.2697 131.853 98.6555 131.28 98.862L133.67 103.622L131.1 103.662ZM131.01 95.942C131.017 95.7204 130.969 95.5006 130.87 95.302C130.787 95.1505 130.667 95.0231 130.52 94.932C130.374 94.8397 130.211 94.7785 130.04 94.752C129.872 94.7166 129.701 94.6998 129.53 94.702H128.34V97.292H129.4C129.585 97.2948 129.769 97.278 129.95 97.242C130.134 97.2089 130.311 97.141 130.47 97.042C130.637 96.9457 130.772 96.8034 130.86 96.632C131.001 96.4282 131.084 96.1896 131.1 95.942H131.01Z" fill="white"/>
<path d="M142.28 101.302C142.115 101.821 141.847 102.301 141.49 102.712C141.146 103.107 140.719 103.421 140.24 103.632C139.726 103.85 139.173 103.962 138.615 103.962C138.057 103.962 137.504 103.85 136.99 103.632C136.517 103.421 136.097 103.106 135.76 102.712C135.414 102.297 135.153 101.818 134.99 101.302C134.803 100.707 134.712 100.086 134.72 99.462V92.532H136.91V99.242C136.911 99.5348 136.945 99.8265 137.01 100.112C137.069 100.37 137.17 100.617 137.31 100.842C137.437 101.057 137.62 101.234 137.84 101.352C138.081 101.486 138.354 101.552 138.63 101.542C138.909 101.552 139.185 101.486 139.43 101.352C139.65 101.234 139.833 101.057 139.96 100.842C140.104 100.619 140.206 100.372 140.26 100.112C140.322 99.8262 140.352 99.5344 140.35 99.242V92.532H142.56V99.462C142.57 100.087 142.475 100.709 142.28 101.302Z" fill="white"/>
<path d="M150.9 103.472C150.267 103.81 149.557 103.979 148.84 103.962C148.15 103.975 147.466 103.832 146.84 103.542C146.241 103.257 145.709 102.848 145.28 102.342C144.833 101.786 144.494 101.152 144.28 100.472C144.024 99.7016 143.899 98.8937 143.91 98.082C143.901 97.2598 144.029 96.4418 144.29 95.662C144.524 94.9863 144.88 94.3592 145.34 93.812C145.777 93.3132 146.315 92.9141 146.92 92.642C147.534 92.3684 148.198 92.2286 148.87 92.232C149.529 92.2338 150.181 92.377 150.78 92.652C151.388 92.9129 151.914 93.3347 152.3 93.872L150.8 95.692C150.609 95.3636 150.328 95.0965 149.99 94.922C149.68 94.7644 149.338 94.6789 148.99 94.672C148.617 94.6652 148.248 94.7548 147.92 94.932C147.595 95.1062 147.312 95.3484 147.09 95.642C146.851 95.9694 146.669 96.3344 146.55 96.722C146.283 97.6158 146.283 98.5682 146.55 99.462C146.665 99.849 146.844 100.214 147.08 100.542C147.3 100.835 147.584 101.075 147.91 101.242C148.218 101.406 148.561 101.492 148.91 101.492C149.315 101.503 149.715 101.395 150.06 101.182C150.386 100.976 150.657 100.695 150.85 100.362L152.39 102.122C151.999 102.676 151.49 103.137 150.9 103.472Z" fill="white"/>
<path d="M157.18 94.822V103.662H154.97V94.822H152.39V92.532H159.77V94.822H157.18Z" fill="white"/>
<path d="M160.78 103.662V92.532H163V103.662H160.78Z" fill="white"/>
<path d="M174.43 98.052C174.439 98.8709 174.31 99.6855 174.05 100.462C173.836 101.145 173.497 101.783 173.05 102.342C172.616 102.851 172.077 103.261 171.47 103.542C170.842 103.825 170.159 103.968 169.47 103.962C168.792 103.972 168.121 103.832 167.503 103.552C166.886 103.272 166.339 102.859 165.9 102.342C165.453 101.783 165.114 101.145 164.9 100.462C164.643 99.6849 164.518 98.8704 164.53 98.052C164.517 97.2336 164.642 96.4188 164.9 95.642C165.114 94.9712 165.454 94.3469 165.9 93.802C166.338 93.3068 166.876 92.9112 167.48 92.642C168.11 92.365 168.792 92.2252 169.48 92.232C170.168 92.2273 170.849 92.367 171.48 92.642C172.085 92.9087 172.624 93.3047 173.06 93.802C173.506 94.3469 173.846 94.9712 174.06 95.642C174.319 96.4187 174.444 97.2336 174.43 98.052ZM172.06 98.052C172.065 97.595 172.001 97.1399 171.87 96.702C171.755 96.3128 171.573 95.9471 171.33 95.622C171.11 95.3261 170.826 95.0835 170.5 94.912C170.173 94.7397 169.809 94.6504 169.44 94.652C169.07 94.6478 168.706 94.7373 168.38 94.912C168.055 95.0862 167.772 95.3284 167.55 95.622C167.307 95.9471 167.125 96.3128 167.01 96.702C166.884 97.1409 166.82 97.5954 166.82 98.052C166.817 98.5227 166.884 98.9913 167.02 99.442C167.135 99.8352 167.314 100.207 167.55 100.542C167.772 100.836 168.055 101.078 168.38 101.252C168.706 101.427 169.07 101.516 169.44 101.512C169.809 101.514 170.173 101.424 170.5 101.252C170.82 101.075 171.099 100.833 171.32 100.542C171.57 100.213 171.756 99.8396 171.87 99.442C172.016 98.9928 172.093 98.5243 172.1 98.052H172.06Z" fill="white"/>
<path d="M181.7 103.662L178.02 96.392L178.07 103.672H175.93V92.532H178.45L182.12 99.802L182.06 92.532H184.21V103.662H181.7Z" fill="white"/>
<path d="M220.16 85.592C220.082 85.5936 220.005 85.5763 219.935 85.5414C219.866 85.5066 219.805 85.4553 219.76 85.392C219.56 85.132 215.05 78.952 215.05 63.492V8.66202C215.053 8.53021 215.106 8.40452 215.199 8.3113C215.292 8.21808 215.418 8.16458 215.55 8.16202C215.683 8.16202 215.81 8.2147 215.904 8.30846C215.997 8.40223 216.05 8.52941 216.05 8.66202V63.492C216.05 78.622 220.51 84.732 220.56 84.792C220.637 84.899 220.67 85.0316 220.651 85.1622C220.632 85.2927 220.564 85.4109 220.46 85.492C220.374 85.5576 220.268 85.5927 220.16 85.592Z" fill="#231F20"/>
<path d="M27.42 115.532H17.79V190.262H27.42V115.532Z" fill="white"/>
<path d="M27.43 190.752H17.79C17.6574 190.752 17.5302 190.699 17.4364 190.606C17.3427 190.512 17.29 190.385 17.29 190.252V115.532C17.29 115.399 17.3427 115.272 17.4364 115.178C17.5302 115.085 17.6574 115.032 17.79 115.032H27.43C27.5626 115.032 27.6898 115.085 27.7836 115.178C27.8773 115.272 27.93 115.399 27.93 115.532V190.252C27.93 190.318 27.9171 190.383 27.8919 190.443C27.8668 190.504 27.83 190.559 27.7836 190.606C27.7371 190.652 27.682 190.689 27.6213 190.714C27.5607 190.739 27.4957 190.752 27.43 190.752ZM18.29 189.752H26.93V116.032H18.29V189.752Z" fill="#231F20"/>
<path d="M86.43 115.532H76.8V190.262H86.43V115.532Z" fill="white"/>
<path d="M86.44 190.752H76.8C76.6674 190.752 76.5402 190.699 76.4464 190.606C76.3527 190.512 76.3 190.385 76.3 190.252V115.532C76.3 115.399 76.3527 115.272 76.4464 115.178C76.5402 115.085 76.6674 115.032 76.8 115.032H86.44C86.5726 115.032 86.6998 115.085 86.7936 115.178C86.8873 115.272 86.94 115.399 86.94 115.532V190.252C86.94 190.385 86.8873 190.512 86.7936 190.606C86.6998 190.699 86.5726 190.752 86.44 190.752ZM77.3 189.752H85.94V116.032H77.3V189.752Z" fill="#231F20"/>
<path d="M93.89 121.132H8.41V146.792H93.89V121.132Z" fill="white"/>
<path d="M93.89 121.132V146.792H8.41V121.132H93.89ZM93.89 120.132H8.41C8.14478 120.132 7.89042 120.237 7.70289 120.425C7.51535 120.612 7.41 120.867 7.41 121.132V146.792C7.41 147.057 7.51535 147.312 7.70289 147.499C7.89042 147.687 8.14478 147.792 8.41 147.792H93.89C94.1552 147.792 94.4096 147.687 94.5971 147.499C94.7846 147.312 94.89 147.057 94.89 146.792V121.132C94.89 120.867 94.7846 120.612 94.5971 120.425C94.4096 120.237 94.1552 120.132 93.89 120.132Z" fill="#231F20"/>
<path d="M39.29 146.792H26.18L9.98 121.142H23.09L39.29 146.792Z" fill="#F09494"/>
<path d="M65.8 146.792H52.69L36.49 121.142H49.6L65.8 146.792Z" fill="#F09494"/>
<path d="M92.31 146.792H79.2L63 121.142H76.11L92.31 146.792Z" fill="#F09494"/>
<path d="M92.32 157.002H8.41V165.292H92.32V157.002Z" fill="white"/>
<path d="M92.31 165.792H8.41C8.27739 165.792 8.15021 165.739 8.05644 165.646C7.96267 165.552 7.91 165.425 7.91 165.292V157.002C7.91 156.869 7.96267 156.742 8.05644 156.648C8.15021 156.555 8.27739 156.502 8.41 156.502H92.31C92.4426 156.502 92.5698 156.555 92.6636 156.648C92.7573 156.742 92.81 156.869 92.81 157.002V165.292C92.81 165.425 92.7573 165.552 92.6636 165.646C92.5698 165.739 92.4426 165.792 92.31 165.792ZM8.91 164.792H91.81V157.502H8.91V164.792Z" fill="#231F20"/>
<path d="M257.33 181.902H227.97L229.35 177.232L229.61 176.342L231.22 170.922L232.01 168.242L233.71 162.492L234.06 161.322L235.93 155.002L236.11 154.392L237.81 148.642L238.77 145.402L240.21 140.542L241.85 134.982H243.43L245.07 140.542L245.85 143.142L247.47 148.642L248.2 151.082L249.18 154.392L249.75 156.302L251.58 162.492L252.1 164.252L253.29 168.242L253.65 169.472L255.68 176.342L255.99 177.402L257.33 181.902Z" fill="white"/>
<path d="M243.43 134.982L245.07 140.542L245.85 143.142L247.47 148.642L248.2 151.082L249.2 154.392L249.77 156.312L251.6 162.492L252.12 164.252L253.3 168.252L253.66 169.482L255.66 176.352L255.97 177.412L257.3 181.912H227.97L229.35 177.242L229.61 176.352L231.22 170.932L232.01 168.252L233.71 162.502L234.06 161.332L235.93 155.012L236.1 154.392L237.8 148.642L238.8 145.402L240.24 140.542L241.88 134.982H243.46M243.46 133.982H241.88C241.665 133.984 241.457 134.055 241.286 134.185C241.115 134.315 240.99 134.496 240.93 134.702L239.28 140.252L237.84 145.122L236.89 148.362L235.18 154.102L235 154.712L233.1 161.032L232.75 162.212L231.05 167.962L230.26 170.632L228.65 176.062L228.39 176.952L227.01 181.622C226.967 181.771 226.958 181.928 226.986 182.081C227.014 182.234 227.077 182.378 227.17 182.502C227.263 182.626 227.384 182.727 227.523 182.796C227.662 182.866 227.815 182.902 227.97 182.902H257.32C257.479 182.908 257.636 182.877 257.78 182.81C257.924 182.744 258.051 182.644 258.148 182.518C258.246 182.393 258.313 182.247 258.342 182.091C258.372 181.935 258.365 181.774 258.32 181.622L256.99 177.122L256.67 176.062L254.67 169.182L254.31 167.962L253.12 163.962L252.6 162.212L250.78 156.022L250.21 154.102L249.21 150.802L248.48 148.352L246.86 142.862L246.08 140.252L244.44 134.702C244.378 134.488 244.245 134.3 244.064 134.17C243.883 134.039 243.663 133.973 243.44 133.982H243.46Z" fill="#231F20"/>
<path d="M260.35 181.902H224.95C224.354 181.902 223.87 182.386 223.87 182.982V184.982C223.87 185.578 224.354 186.062 224.95 186.062H260.35C260.946 186.062 261.43 185.578 261.43 184.982V182.982C261.43 182.386 260.946 181.902 260.35 181.902Z" fill="white"/>
<path d="M260.35 186.562H224.95C224.531 186.562 224.129 186.396 223.833 186.099C223.536 185.803 223.37 185.401 223.37 184.982V182.982C223.37 182.775 223.411 182.569 223.49 182.377C223.57 182.186 223.686 182.012 223.833 181.865C223.979 181.718 224.154 181.602 224.345 181.522C224.537 181.443 224.743 181.402 224.95 181.402H260.35C260.557 181.402 260.763 181.443 260.955 181.522C261.146 181.602 261.321 181.718 261.467 181.865C261.614 182.012 261.73 182.186 261.81 182.377C261.889 182.569 261.93 182.775 261.93 182.982V184.982C261.93 185.401 261.764 185.803 261.467 186.099C261.171 186.396 260.769 186.562 260.35 186.562ZM224.95 182.392C224.796 182.392 224.649 182.453 224.54 182.562C224.431 182.671 224.37 182.818 224.37 182.972V184.972C224.37 185.126 224.431 185.273 224.54 185.382C224.649 185.491 224.796 185.552 224.95 185.552H260.35C260.504 185.552 260.651 185.491 260.76 185.382C260.869 185.273 260.93 185.126 260.93 184.972V182.972C260.93 182.818 260.869 182.671 260.76 182.562C260.651 182.453 260.504 182.392 260.35 182.392H224.95Z" fill="#231F20"/>
<path d="M255.68 176.342H229.61L231.22 170.922L232.01 168.242H253.29L253.65 169.472L255.68 176.342Z" fill="#F09494"/>
<path d="M251.58 162.492H233.71L234.06 161.322L235.93 155.002L236.11 154.392H249.18L249.75 156.302L251.58 162.492Z" fill="#F09494"/>
<path d="M247.47 148.642H237.81L238.77 145.402L240.21 140.542H245.07L245.85 143.142L247.47 148.642Z" fill="#F09494"/>
<path d="M203.82 9.63202L239.21 51.912C239.318 52.0347 239.464 52.1185 239.625 52.1507C239.785 52.1829 239.952 52.1616 240.099 52.0902C240.246 52.0188 240.366 51.9012 240.44 51.7553C240.515 51.6093 240.539 51.4431 240.51 51.282C239.708 47.6716 238.528 44.1556 236.99 40.792L208.28 7.10202L204.64 7.55202C204.412 7.57921 204.196 7.66749 204.015 7.8075C203.833 7.94751 203.693 8.13403 203.609 8.34727C203.525 8.56051 203.5 8.79253 203.537 9.01872C203.575 9.24491 203.672 9.45683 203.82 9.63202Z" fill="white"/>
<path d="M239.77 52.682C239.59 52.6804 239.412 52.6392 239.25 52.5615C239.088 52.4837 238.944 52.3713 238.83 52.232L203.43 9.95201C203.224 9.70739 203.087 9.41135 203.036 9.09542C202.984 8.77948 203.019 8.45548 203.137 8.15791C203.255 7.86034 203.452 7.60035 203.706 7.40561C203.96 7.21086 204.262 7.08866 204.58 7.05202L208.22 6.60202C208.303 6.59315 208.386 6.60495 208.463 6.63638C208.54 6.6678 208.607 6.71785 208.66 6.78202L237.37 40.472C237.396 40.5037 237.419 40.5371 237.44 40.572C238.989 43.9724 240.178 47.5249 240.99 51.172C241.029 51.3539 241.026 51.5422 240.983 51.7231C240.94 51.904 240.857 52.0729 240.74 52.2176C240.623 52.3623 240.475 52.479 240.307 52.5594C240.14 52.6397 239.956 52.6816 239.77 52.682ZM204.2 9.31202L239.6 51.592C239.634 51.6346 239.681 51.6639 239.734 51.6749C239.787 51.6859 239.842 51.6778 239.89 51.652C239.939 51.6284 239.979 51.5889 240.002 51.5398C240.026 51.4907 240.032 51.4351 240.02 51.382C239.221 47.8332 238.062 44.3753 236.56 41.062L208.1 7.63202L204.73 8.04202C204.591 8.0614 204.46 8.11685 204.35 8.20284C204.239 8.28883 204.153 8.40234 204.1 8.53202C204.051 8.66199 204.038 8.80252 204.06 8.93945C204.083 9.07639 204.142 9.20489 204.23 9.31202H204.2Z" fill="#231F20"/>
<path d="M208.28 7.10201L236.99 40.792C236.99 40.792 247.9 27.652 245.68 16.932C243.46 6.21201 233.79 -0.857992 223.1 0.762008C212.41 2.38201 208.28 7.10201 208.28 7.10201Z" fill="white"/>
<path d="M236.99 41.292C236.917 41.2921 236.845 41.276 236.78 41.2448C236.714 41.2137 236.656 41.1683 236.61 41.112L207.9 7.39201C207.823 7.30144 207.78 7.18618 207.78 7.06701C207.78 6.94783 207.823 6.83257 207.9 6.74201C208.07 6.54201 212.23 1.86201 223 0.232009C233.77 -1.39799 243.87 5.71201 246.17 16.802C248.42 27.632 237.82 40.532 237.37 41.082C237.324 41.1383 237.266 41.1837 237.2 41.2148C237.135 41.246 237.063 41.2621 236.99 41.262V41.292ZM208.99 7.13201L236.99 40.002C238.87 37.582 247.13 26.272 245.21 17.002C243.02 6.44201 233.54 -0.347989 223.21 1.22201C214.34 2.58201 210.1 6.07201 208.96 7.13201H208.99Z" fill="#231F20"/>
<path d="M238.21 32.202C238.141 32.2157 238.069 32.2157 238 32.202C237.94 32.1751 237.887 32.1366 237.842 32.0886C237.798 32.0406 237.763 31.9842 237.741 31.9227C237.718 31.8611 237.708 31.7957 237.712 31.7304C237.715 31.665 237.732 31.6009 237.76 31.542C240.643 25.3308 241.443 18.3545 240.04 11.652C240.006 11.5194 240.025 11.3785 240.095 11.2604C240.164 11.1422 240.277 11.0565 240.41 11.022C240.543 10.9875 240.683 11.0071 240.802 11.0765C240.92 11.1459 241.006 11.2594 241.04 11.392C242.544 18.3194 241.722 25.5494 238.7 31.962C238.649 32.0435 238.576 32.1091 238.489 32.1514C238.402 32.1938 238.306 32.2113 238.21 32.202Z" fill="#D1D3D4"/>
<path d="M235.13 38.612L239.58 34.772L242.65 38.192L238.17 42.932L235.13 38.612Z" fill="white"/>
<path d="M238.17 43.392C238.097 43.3857 238.026 43.3637 237.962 43.3274C237.898 43.2912 237.843 43.2416 237.8 43.182L234.8 38.862C234.729 38.7609 234.699 38.6367 234.716 38.5144C234.732 38.392 234.795 38.2804 234.89 38.202L239.25 34.392C239.345 34.3027 239.47 34.253 239.6 34.253C239.73 34.253 239.855 34.3027 239.95 34.392L243.02 37.802C243.104 37.8955 243.15 38.0166 243.15 38.142C243.15 38.2675 243.104 38.3885 243.02 38.482L238.54 43.222C238.495 43.2757 238.438 43.3188 238.374 43.3482C238.31 43.3776 238.24 43.3925 238.17 43.392ZM235.8 38.662L238.22 42.102L241.97 38.102L239.54 35.392L235.8 38.662Z" fill="#231F20"/>
<path d="M234.66 29.442C234.591 29.4557 234.519 29.4557 234.45 29.442C234.33 29.3874 234.236 29.2873 234.189 29.1636C234.142 29.0399 234.146 28.9027 234.2 28.782C235.719 25.5619 236.555 22.0625 236.657 18.5037C236.758 14.9448 236.123 11.4034 234.79 8.102C234.734 7.98228 234.727 7.84553 234.77 7.72056C234.813 7.59558 234.902 7.49213 235.02 7.432C235.079 7.40299 235.143 7.38593 235.209 7.38179C235.275 7.37765 235.341 7.38652 235.403 7.40789C235.465 7.42926 235.522 7.4627 235.572 7.50631C235.621 7.54992 235.661 7.60283 235.69 7.662C237.074 11.0904 237.736 14.7676 237.635 18.4635C237.533 22.1595 236.67 25.7947 235.1 29.142C235.061 29.2277 235 29.3011 234.922 29.354C234.845 29.4069 234.754 29.4374 234.66 29.442Z" fill="#D1D3D4"/>
<path d="M31.28 76.672C31.1474 76.6866 31.0144 76.6479 30.9103 76.5645C30.8063 76.481 30.7396 76.3596 30.725 76.227C30.7104 76.0944 30.7491 75.9614 30.8326 75.8574C30.916 75.7533 31.0374 75.6866 31.17 75.672C31.79 75.542 93.79 61.422 112.17 9.33202C112.213 9.20793 112.304 9.10584 112.421 9.04783C112.539 8.98982 112.675 8.98055 112.8 9.02202C112.925 9.06734 113.027 9.15956 113.085 9.27908C113.143 9.39859 113.152 9.53597 113.11 9.66202C94.59 62.292 32.06 76.512 31.43 76.662L31.28 76.672Z" fill="#231F20"/>
<path d="M132.98 32.232C132.313 32.232 131.663 32.232 131.03 32.232C93.48 30.902 63.03 10.152 62.72 9.94203C62.6655 9.90584 62.6187 9.8591 62.5826 9.80455C62.5464 9.75001 62.5215 9.68877 62.5094 9.62445C62.4973 9.56014 62.4982 9.49405 62.512 9.43009C62.5259 9.36612 62.5524 9.30557 62.59 9.25202C62.6271 9.19716 62.6748 9.15022 62.7302 9.11393C62.7856 9.07764 62.8477 9.05273 62.9128 9.04063C62.9779 9.02854 63.0448 9.0295 63.1096 9.04347C63.1743 9.05745 63.2357 9.08415 63.29 9.12202C63.59 9.33202 93.81 29.912 131.06 31.232C160.2 32.232 179.47 9.44202 179.66 9.23202C179.747 9.13133 179.87 9.06868 180.003 9.05747C180.135 9.04626 180.267 9.08737 180.37 9.17202C180.421 9.21351 180.463 9.26474 180.493 9.32268C180.524 9.38062 180.542 9.44409 180.548 9.50935C180.553 9.57461 180.546 9.64033 180.526 9.70262C180.505 9.76492 180.473 9.82252 180.43 9.87203C180.24 10.052 161.53 32.232 132.98 32.232Z" fill="#231F20"/>
<path d="M171.32 41.392C171.024 41.4069 170.726 41.4069 170.43 41.392C164.65 40.792 160.43 35.052 158.32 24.802C157.333 19.7817 156.827 14.6785 156.81 9.56201C156.81 9.4294 156.863 9.30223 156.956 9.20846C157.05 9.11469 157.177 9.06201 157.31 9.06201C157.444 9.06463 157.571 9.11952 157.664 9.21488C157.758 9.31024 157.81 9.43847 157.81 9.57201C157.81 9.86201 157.59 39.042 170.53 40.402C171.524 40.5107 172.529 40.4024 173.477 40.0848C174.425 39.7671 175.292 39.2476 176.02 38.562C183.5 31.862 183.71 9.78201 183.71 9.56201C183.71 9.4294 183.763 9.30223 183.856 9.20846C183.95 9.11469 184.077 9.06201 184.21 9.06201C184.277 9.062 184.342 9.07526 184.404 9.10101C184.465 9.12676 184.521 9.16449 184.567 9.21198C184.614 9.25947 184.65 9.31578 184.675 9.3776C184.699 9.43942 184.711 9.50552 184.71 9.57201C184.71 10.492 184.49 32.312 176.71 39.302C175.243 40.6564 173.317 41.4034 171.32 41.392Z" fill="#231F20"/>
</svg>
